<?xml version="1.0" encoding="utf-8"?>
<!-- Generator: Adobe Illustrator 16.0.0, SVG Export Plug-In . SVG Version: 6.00 Build 0)  -->
<!DOCTYPE svg PUBLIC "-//W3C//DTD SVG 1.1//EN" "http://www.w3.org/Graphics/SVG/1.1/DTD/svg11.dtd">
<svg version="1.1" id="Layer_1" xmlns="http://www.w3.org/2000/svg" xmlns:xlink="http://www.w3.org/1999/xlink" x="0px" y="0px"
	 width="82.639px" height="92.2px" viewBox="0 0 82.639 92.2" enable-background="new 0 0 82.639 92.2" xml:space="preserve">
<path fill-rule="evenodd" stroke-width="5" clip-rule="evenodd" d="M70.771,63.9c-0.003,3.086-0.009,5.573-0.019,6.347
	c-0.091,6.861-8.082,11.023-29.909,10.879c-23.596-0.156-29.941-3.694-29.908-10.879c0.003-0.743,0.003-3.256,0.002-6.347h29.336
	c-0.077-1.221-0.354-2.426-0.804-3.611h2.72c0.608,1.001,0.998,2.254,1.177,3.611H70.771L70.771,63.9z M45.084,79.369
	c-0.663,0.03-1.185-0.114-1.566-0.431s-0.598-0.804-0.646-1.459c-0.011-0.14-0.023-0.346-0.035-0.615
	c-0.013-0.275-0.019-0.483-0.021-0.623c-0.01-0.644,0.166-1.146,0.527-1.506c0.361-0.359,0.863-0.554,1.506-0.583
	c0.638-0.029,1.153,0.119,1.548,0.445c0.395,0.325,0.616,0.81,0.665,1.45c0.022,0.281,0.036,0.488,0.042,0.624
	c0.006,0.131,0.011,0.335,0.014,0.616c0.011,0.657-0.162,1.161-0.517,1.512C46.247,79.149,45.741,79.338,45.084,79.369
	L45.084,79.369z M38.291,79.279c-0.048,0-0.09-0.018-0.123-0.052c-0.034-0.035-0.049-0.076-0.049-0.125l0.07-4.721
	c0-0.053,0.017-0.096,0.049-0.13c0.031-0.033,0.074-0.049,0.127-0.048l2.104,0.029c0.565,0.01,0.987,0.14,1.263,0.393
	s0.412,0.595,0.405,1.025c-0.003,0.251-0.067,0.465-0.193,0.64c-0.126,0.174-0.272,0.299-0.438,0.374
	c0.202,0.095,0.371,0.247,0.509,0.457c0.137,0.21,0.203,0.448,0.199,0.714c-0.007,0.45-0.164,0.81-0.473,1.081
	s-0.736,0.403-1.282,0.395L38.291,79.279L38.291,79.279z M33.714,79.133c-0.048-0.002-0.088-0.021-0.121-0.056
	c-0.033-0.034-0.048-0.076-0.046-0.124l0.167-4.719c0.001-0.054,0.019-0.098,0.051-0.129c0.033-0.033,0.076-0.048,0.128-0.047
	l3.196,0.113c0.054,0.002,0.097,0.021,0.129,0.055c0.032,0.036,0.048,0.08,0.046,0.133l-0.018,0.486
	c-0.001,0.053-0.02,0.095-0.055,0.124c-0.035,0.031-0.079,0.045-0.132,0.043l-2.377-0.085l-0.045,1.271l2.218,0.077
	c0.053,0.002,0.096,0.021,0.128,0.056c0.033,0.035,0.048,0.079,0.046,0.132l-0.017,0.457c-0.001,0.053-0.02,0.095-0.055,0.125
	c-0.035,0.031-0.08,0.045-0.133,0.043l-2.217-0.079l-0.046,1.312l2.435,0.087c0.053,0.002,0.096,0.02,0.129,0.051
	c0.032,0.033,0.048,0.076,0.046,0.129l-0.018,0.494c-0.002,0.053-0.021,0.095-0.055,0.124c-0.036,0.03-0.079,0.044-0.133,0.043
	L33.714,79.133L33.714,79.133z M47.573,79.199c-0.043,0.003-0.081-0.01-0.11-0.037c-0.031-0.025-0.048-0.062-0.051-0.105l0.01-0.065
	l1.425-4.784c0.04-0.124,0.124-0.189,0.25-0.197l0.795-0.055c0.126-0.008,0.217,0.048,0.272,0.165l2.049,4.552l0.019,0.063
	c0.002,0.043-0.01,0.081-0.04,0.112c-0.028,0.03-0.063,0.048-0.103,0.05l-0.644,0.043c-0.102,0.007-0.174-0.034-0.219-0.123
	l-0.392-0.854l-2.142,0.144l-0.275,0.897c-0.031,0.094-0.099,0.145-0.2,0.151L47.573,79.199L47.573,79.199z M30.286,78.919
	c-0.048-0.004-0.088-0.023-0.12-0.059c-0.031-0.037-0.045-0.079-0.042-0.128l0.279-3.985l-1.339-0.095
	c-0.048-0.004-0.088-0.022-0.119-0.059c-0.031-0.036-0.045-0.082-0.042-0.134l0.038-0.542c0.004-0.053,0.023-0.096,0.057-0.128
	c0.034-0.031,0.077-0.045,0.13-0.042l3.697,0.26c0.053,0.003,0.095,0.022,0.126,0.059c0.031,0.037,0.045,0.082,0.042,0.135
	l-0.038,0.542c-0.004,0.054-0.024,0.095-0.06,0.127c-0.037,0.031-0.081,0.045-0.134,0.041l-1.331-0.093l-0.279,3.986
	c-0.003,0.049-0.021,0.089-0.056,0.12c-0.034,0.031-0.077,0.045-0.129,0.041L30.286,78.919L30.286,78.919z M53.04,78.828
	c-0.048,0.006-0.091-0.005-0.13-0.033c-0.037-0.029-0.06-0.067-0.067-0.115l-0.644-4.677c-0.008-0.054,0.003-0.1,0.028-0.137
	c0.027-0.037,0.067-0.061,0.12-0.067l1.86-0.256c0.589-0.082,1.069-0.01,1.44,0.218c0.369,0.228,0.589,0.593,0.658,1.096
	c0.049,0.349,0.005,0.654-0.13,0.915c-0.135,0.26-0.346,0.464-0.633,0.611l1.293,1.688c0.02,0.028,0.03,0.053,0.033,0.076
	c0.006,0.044-0.005,0.081-0.032,0.114c-0.026,0.033-0.06,0.053-0.099,0.058l-0.66,0.091c-0.077,0.012-0.14,0.001-0.188-0.028
	c-0.048-0.03-0.093-0.072-0.134-0.125l-1.155-1.576l-0.983,0.136l0.237,1.725c0.007,0.048-0.004,0.091-0.033,0.129
	s-0.069,0.061-0.122,0.067L53.04,78.828L53.04,78.828z M24.404,78.287c-0.043-0.005-0.078-0.024-0.103-0.057
	s-0.036-0.07-0.031-0.113l0.022-0.063l2.272-4.444c0.062-0.114,0.155-0.164,0.28-0.15l0.792,0.093
	c0.125,0.015,0.204,0.085,0.238,0.21l1.186,4.85l0.007,0.066c-0.005,0.043-0.025,0.077-0.06,0.102
	c-0.035,0.026-0.071,0.036-0.109,0.031l-0.641-0.075c-0.101-0.012-0.166-0.064-0.193-0.16l-0.229-0.911l-2.132-0.249l-0.433,0.833
	c-0.049,0.088-0.125,0.125-0.225,0.112L24.404,78.287L24.404,78.287z M40.347,78.534c0.251,0.004,0.448-0.063,0.59-0.198
	c0.143-0.136,0.215-0.311,0.218-0.523c0.003-0.212-0.065-0.389-0.207-0.528c-0.141-0.14-0.334-0.211-0.581-0.216l-1.196-0.017
	l-0.021,1.465L40.347,78.534L40.347,78.534z M45.046,78.529c0.323-0.015,0.575-0.124,0.755-0.325s0.268-0.503,0.264-0.905
	c-0.003-0.29-0.007-0.485-0.012-0.587c-0.005-0.111-0.019-0.307-0.041-0.587c-0.032-0.396-0.15-0.687-0.352-0.873
	c-0.201-0.188-0.46-0.272-0.774-0.259c-0.318,0.014-0.569,0.123-0.754,0.327s-0.273,0.505-0.265,0.901
	c0.001,0.141,0.008,0.337,0.02,0.588c0.011,0.246,0.021,0.441,0.034,0.586c0.027,0.396,0.141,0.687,0.34,0.874
	S44.723,78.542,45.046,78.529L45.046,78.529z M20.244,77.346c-0.048-0.011-0.084-0.036-0.109-0.076
	c-0.025-0.042-0.032-0.086-0.021-0.133l1.083-4.596c0.012-0.052,0.037-0.091,0.075-0.116c0.039-0.025,0.084-0.032,0.136-0.021
	l0.635,0.149c0.052,0.013,0.09,0.039,0.116,0.08c0.025,0.04,0.031,0.087,0.02,0.139l-0.39,1.651l1.975-1.33
	c0.091-0.067,0.192-0.089,0.305-0.062l0.721,0.169c0.038,0.009,0.068,0.031,0.092,0.067c0.024,0.034,0.031,0.073,0.021,0.115
	c-0.008,0.034-0.026,0.059-0.056,0.077l-2.422,1.68l1.51,2.822c0.011,0.036,0.014,0.069,0.007,0.099
	c-0.01,0.042-0.033,0.073-0.067,0.096c-0.036,0.021-0.072,0.027-0.109,0.019l-0.742-0.174c-0.099-0.023-0.164-0.061-0.197-0.11
	s-0.051-0.078-0.055-0.083l-1.248-2.262l-0.43,1.821c-0.01,0.047-0.037,0.083-0.077,0.107c-0.041,0.026-0.087,0.032-0.139,0.021
	L20.244,77.346L20.244,77.346z M58.056,78.095c-0.047,0.01-0.091,0.002-0.131-0.025c-0.041-0.026-0.066-0.062-0.075-0.109
	l-0.972-4.621c-0.011-0.052-0.005-0.098,0.02-0.138c0.023-0.039,0.062-0.064,0.113-0.075l1.731-0.363
	c1.396-0.294,2.244,0.199,2.543,1.481c0.066,0.272,0.11,0.456,0.131,0.551c0.018,0.089,0.053,0.271,0.101,0.549
	c0.12,0.667,0.044,1.192-0.229,1.578c-0.272,0.387-0.76,0.652-1.465,0.802L58.056,78.095L58.056,78.095z M48.89,77.25l1.637-0.109
	l-0.967-2.175L48.89,77.25L48.89,77.25z M59.615,76.908c0.393-0.083,0.657-0.23,0.797-0.442c0.138-0.212,0.169-0.522,0.093-0.932
	c-0.05-0.285-0.083-0.464-0.098-0.534c-0.016-0.076-0.058-0.249-0.125-0.521c-0.091-0.387-0.247-0.651-0.471-0.795
	c-0.222-0.144-0.532-0.173-0.931-0.089l-0.865,0.182l0.698,3.32L59.615,76.908L59.615,76.908z M26.052,76.61l1.628,0.19
	l-0.554-2.314L26.052,76.61L26.052,76.61z M16.76,76.274c-0.38-0.212-0.673-0.45-0.879-0.716s-0.327-0.528-0.363-0.793
	c-0.035-0.264,0.004-0.507,0.119-0.731c0.018-0.034,0.048-0.057,0.088-0.07c0.041-0.014,0.081-0.01,0.118,0.012l0.577,0.322
	c0.046,0.025,0.079,0.058,0.096,0.095c0.018,0.038,0.028,0.083,0.032,0.135c-0.038,0.167-0.009,0.342,0.086,0.522
	s0.274,0.344,0.535,0.49c0.296,0.165,0.546,0.24,0.752,0.225c0.205-0.015,0.356-0.109,0.453-0.282
	c0.064-0.114,0.079-0.23,0.045-0.349c-0.033-0.118-0.111-0.25-0.234-0.393c-0.122-0.143-0.312-0.339-0.571-0.589
	c-0.433-0.397-0.71-0.758-0.834-1.082s-0.084-0.667,0.119-1.03c0.137-0.244,0.327-0.425,0.569-0.541
	c0.243-0.117,0.52-0.16,0.832-0.13c0.313,0.031,0.636,0.14,0.97,0.326c0.351,0.196,0.619,0.427,0.805,0.691
	c0.188,0.265,0.296,0.526,0.325,0.785c0.031,0.258,0,0.479-0.094,0.666c-0.018,0.034-0.049,0.058-0.088,0.07
	c-0.041,0.014-0.081,0.01-0.119-0.012l-0.601-0.336c-0.093-0.053-0.135-0.126-0.126-0.221c0.055-0.146,0.036-0.306-0.057-0.477
	s-0.245-0.315-0.456-0.433c-0.232-0.131-0.439-0.188-0.622-0.174c-0.182,0.014-0.32,0.105-0.415,0.274
	c-0.064,0.113-0.083,0.228-0.058,0.341c0.025,0.114,0.094,0.239,0.206,0.377c0.111,0.138,0.284,0.318,0.518,0.544
	c0.329,0.294,0.575,0.557,0.737,0.785c0.163,0.229,0.251,0.454,0.268,0.673c0.016,0.22-0.046,0.453-0.186,0.702
	c-0.153,0.275-0.36,0.471-0.622,0.587c-0.262,0.117-0.559,0.151-0.89,0.105C17.463,76.598,17.118,76.475,16.76,76.274L16.76,76.274z
	 M64.709,76.061c-0.4,0.17-0.769,0.256-1.104,0.257c-0.335,0.002-0.618-0.063-0.85-0.196c-0.229-0.134-0.399-0.314-0.506-0.541
	c-0.017-0.035-0.017-0.073-0.002-0.114c0.014-0.04,0.042-0.069,0.081-0.086l0.608-0.259c0.048-0.021,0.094-0.027,0.134-0.018
	c0.04,0.008,0.082,0.027,0.127,0.056c0.108,0.132,0.264,0.216,0.465,0.251c0.201,0.036,0.441-0.006,0.717-0.124
	c0.31-0.133,0.523-0.285,0.636-0.457c0.114-0.171,0.132-0.349,0.053-0.531c-0.051-0.12-0.134-0.202-0.247-0.249
	c-0.113-0.046-0.266-0.064-0.454-0.055c-0.188,0.009-0.46,0.039-0.814,0.092c-0.579,0.1-1.033,0.099-1.366-0.001
	c-0.331-0.101-0.579-0.342-0.743-0.724c-0.109-0.259-0.137-0.519-0.08-0.782c0.056-0.264,0.192-0.509,0.406-0.737
	c0.216-0.229,0.499-0.418,0.851-0.567c0.369-0.158,0.715-0.229,1.04-0.216c0.323,0.015,0.598,0.088,0.819,0.223
	c0.223,0.134,0.38,0.294,0.471,0.48c0.015,0.036,0.015,0.075,0.001,0.115c-0.015,0.04-0.042,0.068-0.082,0.086l-0.634,0.27
	c-0.098,0.041-0.181,0.03-0.251-0.034c-0.084-0.133-0.221-0.215-0.413-0.247c-0.191-0.03-0.398,0.001-0.621,0.096
	c-0.244,0.105-0.417,0.233-0.518,0.387c-0.099,0.153-0.112,0.319-0.036,0.497c0.052,0.12,0.13,0.205,0.234,0.255
	c0.105,0.05,0.246,0.073,0.423,0.067c0.178-0.005,0.427-0.03,0.747-0.077c0.434-0.08,0.792-0.115,1.072-0.103
	c0.281,0.011,0.514,0.077,0.697,0.199c0.184,0.121,0.33,0.313,0.442,0.575c0.123,0.289,0.151,0.574,0.083,0.853
	c-0.067,0.278-0.221,0.534-0.46,0.768C65.396,75.702,65.088,75.899,64.709,76.061L64.709,76.061z M40.307,76.313
	c0.246,0.003,0.437-0.054,0.571-0.174c0.135-0.118,0.204-0.279,0.207-0.481c0.003-0.203-0.06-0.362-0.188-0.475
	c-0.13-0.113-0.32-0.172-0.571-0.176l-1.124-0.017l-0.02,1.306L40.307,76.313L40.307,76.313z M54.505,75.858
	c0.287-0.039,0.494-0.132,0.621-0.279c0.125-0.146,0.172-0.343,0.139-0.586c-0.034-0.244-0.132-0.422-0.294-0.535
	c-0.161-0.111-0.386-0.147-0.674-0.108l-0.999,0.138l0.209,1.508L54.505,75.858L54.505,75.858z M48.56,68.433h-5.327
	c-0.056,0.305-0.121,0.607-0.195,0.906h5.522V68.433L48.56,68.433z M39.606,68.433h-5.552v0.906h5.18
	C39.371,69.037,39.496,68.734,39.606,68.433L39.606,68.433z M53.546,66.62H43.452c-0.019,0.302-0.047,0.605-0.082,0.906h10.176
	V66.62L53.546,66.62z M40.106,66.62H28.161v0.906h11.735C39.979,67.223,40.049,66.92,40.106,66.62L40.106,66.62z M57.173,64.806
	H43.452c0.02,0.299,0.028,0.603,0.028,0.906h13.692V64.806L57.173,64.806z M40.293,64.806H24.534v0.906h15.704
	C40.269,65.41,40.287,65.108,40.293,64.806L40.293,64.806z M24.559,62.086c-0.016,0.301-0.025,0.603-0.025,0.907H10.937l0-0.907
	H24.559L24.559,62.086z M70.771,62.994H57.173c0-0.305-0.009-0.606-0.025-0.907h13.624L70.771,62.994L70.771,62.994z M24.635,61.18
	H10.936c-0.002-5.1-0.006-10.769-0.001-12.692c0.017-6.882,2.419-13.616,29.002-13.6c26.866,0.017,30.778,6.393,30.815,13.6
	c0.003,0.515,0.005,1.126,0.007,1.813H52.365l-0.185,0.91h18.581c0.002,1.093,0.005,2.323,0.006,3.622H54.987
	c-0.768-1.325-1.716-2.532-2.812-3.589l-0.718,3.566c-1.903-0.484-3.817-0.683-5.512-0.228c4.174,0.705,6.505,3.414,7.601,5.675
	l-4.694,2.735c-0.64-2.043-2.348-3.167-4.379-3.521l-0.016,1.707c-1.064-0.759-2.331-1.298-3.635-1.587
	c-1.304,0.289-2.57,0.828-3.635,1.587l-0.016-1.707c-2.03,0.354-3.738,1.478-4.378,3.521l-4.694-2.735
	c1.169-2.413,3.747-5.338,8.471-5.79c-1.902-0.873-4.178-0.996-6.46-0.121l-0.564-3.114c-1.101,1.059-2.055,2.271-2.825,3.601
	H10.935v0.907h15.298c-0.431,0.865-0.787,1.774-1.06,2.72H10.935v0.906H24.94C24.805,59.959,24.702,60.565,24.635,61.18
	L24.635,61.18z M70.772,61.18H57.073c-0.068-0.615-0.17-1.221-0.305-1.813h14.003L70.772,61.18L70.772,61.18z M70.771,58.46H56.533
	c-0.272-0.945-0.629-1.854-1.06-2.72h15.295l0.002,1.351V58.46L70.771,58.46z M50.546,49.866c-2.712-2.005-6.063-3.192-9.693-3.192
	c-3.631,0-6.988,1.189-9.7,3.199c2.749-0.39,6.853-0.059,9.718,2.247C43.721,49.827,47.797,49.487,50.546,49.866L50.546,49.866z
	 M29.376,50.301H10.935v0.91h18.606L29.376,50.301L29.376,50.301z M20.866,45.129c-0.055,0.018-0.108,0.013-0.159-0.014
	c-0.051-0.026-0.085-0.067-0.103-0.123l-1.696-5.41c-0.02-0.061-0.016-0.116,0.007-0.167c0.024-0.05,0.066-0.085,0.127-0.104
	l3.615-1.133c0.061-0.019,0.117-0.016,0.168,0.011c0.051,0.026,0.086,0.07,0.105,0.131l0.187,0.599
	c0.018,0.055,0.013,0.108-0.013,0.159s-0.071,0.086-0.132,0.104l-2.659,0.834l0.489,1.563l2.494-0.782
	c0.061-0.019,0.117-0.015,0.167,0.011c0.051,0.026,0.085,0.068,0.103,0.123l0.188,0.599c0.017,0.056,0.012,0.108-0.015,0.159
	s-0.07,0.086-0.131,0.105l-2.493,0.782l0.644,2.053c0.017,0.055,0.012,0.108-0.015,0.159s-0.07,0.085-0.131,0.105L20.866,45.129
	L20.866,45.129z M58.522,44.685c-0.055-0.018-0.095-0.052-0.12-0.103c-0.025-0.05-0.029-0.103-0.011-0.157l0.606-1.831l-0.801-4.049
	c0-0.054,0.002-0.087,0.005-0.097c0.017-0.049,0.048-0.084,0.094-0.105c0.046-0.021,0.091-0.023,0.135-0.009l0.731,0.242
	c0.104,0.035,0.171,0.114,0.202,0.238l0.585,2.813l2.158-1.905c0.033-0.03,0.076-0.055,0.127-0.075
	c0.053-0.02,0.108-0.019,0.168,0.001l0.732,0.243c0.049,0.016,0.085,0.045,0.105,0.089c0.021,0.042,0.025,0.089,0.009,0.138
	c-0.011,0.032-0.028,0.06-0.054,0.081l-3.051,2.775l-0.606,1.832c-0.019,0.06-0.054,0.101-0.104,0.124
	c-0.049,0.022-0.104,0.023-0.163,0.004L58.522,44.685L58.522,44.685z M50.724,43.327c-0.057-0.008-0.103-0.034-0.138-0.08
	c-0.035-0.046-0.049-0.097-0.041-0.154l0.752-5.595c0.008-0.063,0.035-0.11,0.08-0.142c0.045-0.032,0.096-0.044,0.153-0.036
	l0.807,0.108c0.063,0.009,0.11,0.034,0.143,0.076c0.031,0.042,0.044,0.095,0.035,0.158l-0.64,4.77l2.719,0.366
	c0.063,0.008,0.112,0.035,0.146,0.081c0.035,0.045,0.049,0.096,0.04,0.154l-0.082,0.618c-0.009,0.057-0.034,0.103-0.079,0.137
	c-0.046,0.035-0.101,0.048-0.163,0.04L50.724,43.327L50.724,43.327z M27.381,43.527c-0.052,0.006-0.098-0.007-0.136-0.037
	c-0.039-0.032-0.062-0.073-0.067-0.125l0.009-0.08l1.479-5.83c0.042-0.15,0.138-0.234,0.289-0.251l0.956-0.103
	c0.151-0.017,0.263,0.044,0.337,0.183l2.692,5.378l0.026,0.076c0.006,0.053-0.009,0.098-0.042,0.137
	c-0.034,0.039-0.074,0.061-0.12,0.065l-0.773,0.084c-0.122,0.013-0.212-0.033-0.27-0.138l-0.513-1.008l-2.572,0.278l-0.286,1.094
	c-0.034,0.115-0.112,0.18-0.234,0.193L27.381,43.527L27.381,43.527z M45.703,42.931c-0.058-0.004-0.104-0.027-0.142-0.07
	c-0.038-0.043-0.055-0.093-0.052-0.151l0.379-5.618c0.004-0.063,0.027-0.112,0.069-0.146c0.043-0.034,0.093-0.05,0.151-0.046
	l0.826,0.056c0.064,0.004,0.113,0.026,0.148,0.066c0.033,0.04,0.05,0.091,0.045,0.154l-0.378,5.618
	c-0.004,0.058-0.025,0.105-0.065,0.143c-0.041,0.038-0.092,0.055-0.155,0.05L45.703,42.931L45.703,42.931z M36.651,42.814
	c-0.057,0-0.106-0.019-0.147-0.059s-0.061-0.088-0.062-0.146l-0.063-5.612c0-0.063,0.018-0.115,0.055-0.155
	c0.037-0.041,0.087-0.062,0.15-0.062l0.698-0.007c0.109-0.002,0.196,0.052,0.26,0.161l1.697,3.068l1.63-3.105
	c0.063-0.11,0.147-0.166,0.256-0.167l0.69-0.008c0.063,0,0.115,0.02,0.156,0.059c0.041,0.04,0.061,0.091,0.062,0.155l0.062,5.611
	c0.001,0.063-0.019,0.114-0.058,0.152c-0.04,0.038-0.092,0.057-0.155,0.057l-0.741,0.008c-0.058,0-0.107-0.019-0.147-0.058
	c-0.041-0.04-0.062-0.089-0.062-0.146l-0.041-3.707l-1.173,2.289c-0.062,0.127-0.156,0.192-0.282,0.193l-0.362,0.004
	c-0.121,0.001-0.219-0.061-0.295-0.187l-1.223-2.262l0.042,3.706c0,0.058-0.019,0.106-0.055,0.147
	c-0.037,0.041-0.087,0.062-0.149,0.062L36.651,42.814L36.651,42.814z M28.869,41.116l1.963-0.212l-1.271-2.57L28.869,41.116
	L28.869,41.116z"/>
<path d="M9.097,48.488C9.067,49.664,9.088,50.843,9.083,52c-0.029,6.327-0.02,12.729,0.04,18.988
	c0.027,1.674,0.376,3.372,1.376,4.771c2.385,3.34,6.721,4.489,10.482,5.351c5.973,1.369,12.152,1.706,18.301,1.806
	c9.699,0.158,19.957,0.318,28.309-4.625c2.686-1.589,4.918-4.313,4.994-7.565c0.115-7.5,0.064-15.038-0.001-22.522
	c-0.033-2.562-0.552-5.163-2.141-7.237c-3.374-4.404-9.82-5.69-14.63-6.984c-9.014-2.426-18.046-5.774-17.75-16.911
	c0.184-6.91,2.057-10.731,5.675-13.688c3.148-2.574,9.329-3.787,16.555-3.263c11.502,0.834,17.396,3.813,20.795,10.219
	c2.051,3.864,1.527,9.571,1.527,9.571l-9.752-1.685c0,0,0.414-2.442-0.607-4.022c-1.771-2.739-5.298-4.27-10.229-4.86
	c-8.47-1.014-14.842,0.086-14.508,8.137c0.188,4.51,4.573,6.25,7.841,6.982c1.467,0.329,7.632,2.011,11.404,3.446
	c6.283,2.391,11.928,6.25,13.928,12.92c1.082,3.605,0.957,8.107,0.958,11.887c0.005,6.016,0.058,12.035,0.001,18.04
	c-0.015,0.931-0.043,1.189-0.105,1.775c-0.423,3.88-2.247,7.547-5.057,10.31c-6.333,6.229-15.846,8.022-25.073,8.792
	c-12.867,1.07-26.282,1.151-38.199-3.396C6.18,85.553,0.137,79.41,0.056,70.959c-0.023-6.985-0.097-13.986-0.024-20.995
	c0.005-0.493,0.018-0.985,0.039-1.477H0.056V13.815c0,0,0.292-2.384,2.26-4.104c5.644-4.934,13.456-7.005,21.06-8.128
	c3.552-0.524,7.152-0.769,10.728-0.766c1.194,0.006,2.389,0.031,3.581,0.097l-2.19,8.86c-8.394-0.499-17.162,0.866-24.401,4.711
	c-0.891,0.473-1.971,1.393-1.971,1.393v14.428c4.083-2.696,9.048-4.179,13.308-5.015c3.105-0.61,6.436-0.861,9.437-1.047
	l-2.255,9.195c-2.361,0.209-4.685,0.537-6.915,1.047l-0.068,0.016l-0.048,0.011l-0.068,0.016l-0.048,0.011
	c-2.403,0.566-4.692,1.348-6.795,2.429c-2.175,1.118-4.163,2.731-5.247,4.921c-0.909,1.837-1.206,3.846-1.3,5.882v0.715H9.097
	L9.097,48.488z"/>
</svg>
